<?xml version="1.0" encoding="UTF-8"?>
<svg xmlns="http://www.w3.org/2000/svg" xmlns:xlink="http://www.w3.org/1999/xlink" width="px" height="50px" viewBox="0 0 35 49" version="1.1">
<g id="surface1">
<path style=" stroke:none;fill-rule:nonzero;fill:rgb(14.901961%,30.196078%,89.411765%);fill-opacity:1;" d="M 17.480469 48.875 L 3.234375 44.949219 L 0.0625 9.605469 L 34.9375 9.605469 L 31.761719 44.945312 Z M 17.480469 48.875 "/>
<path style=" stroke:none;fill-rule:nonzero;fill:rgb(16.078431%,39.607843%,94.509804%);fill-opacity:1;" d="M 29.042969 42.695312 L 31.757812 12.496094 L 17.5 12.496094 L 17.5 45.871094 Z M 29.042969 42.695312 "/>
<path style=" stroke:none;fill-rule:nonzero;fill:rgb(92.156863%,92.156863%,92.156863%);fill-opacity:1;" d="M 7.335938 25.605469 L 7.730469 29.9375 L 17.5 29.9375 L 17.5 25.605469 Z M 7.335938 25.605469 "/>
<path style=" stroke:none;fill-rule:nonzero;fill:rgb(92.156863%,92.156863%,92.156863%);fill-opacity:1;" d="M 6.550781 16.832031 L 6.949219 21.164062 L 17.5 21.164062 L 17.5 16.832031 Z M 6.550781 16.832031 "/>
<path style=" stroke:none;fill-rule:nonzero;fill:rgb(92.156863%,92.156863%,92.156863%);fill-opacity:1;" d="M 17.5 36.863281 L 17.480469 36.867188 L 12.617188 35.5625 L 12.308594 32.105469 L 7.925781 32.105469 L 8.535156 38.914062 L 17.480469 41.378906 L 17.5 41.371094 Z M 17.5 36.863281 "/>
<path style=" stroke:none;fill-rule:nonzero;fill:rgb(0%,0%,0%);fill-opacity:1;" d="M 8.269531 0 L 13.558594 0 L 13.558594 2.195312 L 10.480469 2.195312 L 10.480469 4.390625 L 13.558594 4.390625 L 13.558594 6.585938 L 8.269531 6.585938 Z M 8.269531 0 "/>
<path style=" stroke:none;fill-rule:nonzero;fill:rgb(0%,0%,0%);fill-opacity:1;" d="M 14.617188 0 L 19.902344 0 L 19.902344 1.910156 L 16.828125 1.910156 L 16.828125 2.292969 L 19.902344 2.292969 L 19.902344 6.683594 L 14.617188 6.683594 L 14.617188 4.675781 L 17.691406 4.675781 L 17.691406 4.296875 L 14.617188 4.296875 Z M 14.617188 0 "/>
<path style=" stroke:none;fill-rule:nonzero;fill:rgb(0%,0%,0%);fill-opacity:1;" d="M 20.960938 0 L 26.25 0 L 26.25 1.910156 L 23.171875 1.910156 L 23.171875 2.292969 L 26.25 2.292969 L 26.25 6.683594 L 20.960938 6.683594 L 20.960938 4.675781 L 24.039062 4.675781 L 24.039062 4.296875 L 20.960938 4.296875 Z M 20.960938 0 "/>
<path style=" stroke:none;fill-rule:nonzero;fill:rgb(100%,100%,100%);fill-opacity:1;" d="M 27.632812 25.605469 L 28.421875 16.832031 L 17.484375 16.832031 L 17.484375 21.164062 L 23.636719 21.164062 L 23.242188 25.605469 L 17.484375 25.605469 L 17.484375 29.9375 L 22.863281 29.9375 L 22.355469 35.5625 L 17.484375 36.867188 L 17.484375 41.375 L 26.4375 38.914062 L 26.5 38.179688 L 27.527344 26.769531 Z M 27.632812 25.605469 "/>
</g>
</svg>
