<?xml version="1.0" encoding="UTF-8"?>
<svg xmlns="http://www.w3.org/2000/svg" xmlns:xlink="http://www.w3.org/1999/xlink" width="33px" height="50px" viewBox="0 0 33 49" version="1.1">
<g id="surface1">
<path style=" stroke:none;fill-rule:nonzero;fill:rgb(3.921569%,81.176471%,51.372549%);fill-opacity:1;" d="M 8.25 49 C 12.804688 49 16.5 45.339844 16.5 40.832031 L 16.5 32.667969 L 8.25 32.667969 C 3.695312 32.667969 0 36.324219 0 40.832031 C 0 45.339844 3.695312 49 8.25 49 Z M 8.25 49 "/>
<path style=" stroke:none;fill-rule:nonzero;fill:rgb(63.529412%,34.901961%,100%);fill-opacity:1;" d="M 0 24.5 C 0 19.992188 3.695312 16.332031 8.25 16.332031 L 16.5 16.332031 L 16.5 32.667969 L 8.25 32.667969 C 3.695312 32.667969 0 29.007812 0 24.5 Z M 0 24.5 "/>
<path style=" stroke:none;fill-rule:nonzero;fill:rgb(94.901961%,30.588235%,11.764706%);fill-opacity:1;" d="M 0 8.167969 C 0 3.660156 3.695312 0 8.25 0 L 16.5 0 L 16.5 16.332031 L 8.25 16.332031 C 3.695312 16.332031 0 12.675781 0 8.167969 Z M 0 8.167969 "/>
<path style=" stroke:none;fill-rule:nonzero;fill:rgb(100%,44.705882%,38.431373%);fill-opacity:1;" d="M 16.5 0 L 24.75 0 C 29.304688 0 33 3.660156 33 8.167969 C 33 12.675781 29.304688 16.332031 24.75 16.332031 L 16.5 16.332031 Z M 16.5 0 "/>
<path style=" stroke:none;fill-rule:nonzero;fill:rgb(10.196078%,73.72549%,99.607843%);fill-opacity:1;" d="M 33 24.5 C 33 29.007812 29.304688 32.667969 24.75 32.667969 C 20.195312 32.667969 16.5 29.007812 16.5 24.5 C 16.5 19.992188 20.195312 16.332031 24.75 16.332031 C 29.304688 16.332031 33 19.992188 33 24.5 Z M 33 24.5 "/>
</g>
</svg>
