<?xml version="1.0" encoding="UTF-8"?>
<svg xmlns="http://www.w3.org/2000/svg" xmlns:xlink="http://www.w3.org/1999/xlink" width="px" height="50px" viewBox="0 0 35 49" version="1.1">
<g id="surface1">
<path style=" stroke:none;fill-rule:nonzero;fill:rgb(89.411765%,30.196078%,14.901961%);fill-opacity:1;" d="M 34.9375 9.605469 L 31.761719 44.945312 L 17.480469 48.875 L 3.234375 44.949219 L 0.0625 9.605469 Z M 34.9375 9.605469 "/>
<path style=" stroke:none;fill-rule:nonzero;fill:rgb(94.509804%,39.607843%,16.078431%);fill-opacity:1;" d="M 17.5 45.871094 L 29.042969 42.695312 L 31.757812 12.496094 L 17.5 12.496094 Z M 17.5 45.871094 "/>
<path style=" stroke:none;fill-rule:nonzero;fill:rgb(92.156863%,92.156863%,92.156863%);fill-opacity:1;" d="M 11.324219 21.164062 L 17.5 21.164062 L 17.5 16.832031 L 6.550781 16.832031 L 6.65625 17.992188 L 7.730469 29.9375 L 17.5 29.9375 L 17.5 25.605469 L 11.722656 25.605469 Z M 11.324219 21.164062 "/>
<path style=" stroke:none;fill-rule:nonzero;fill:rgb(92.156863%,92.156863%,92.156863%);fill-opacity:1;" d="M 12.308594 32.105469 L 7.925781 32.105469 L 8.535156 38.914062 L 17.480469 41.378906 L 17.5 41.371094 L 17.5 36.863281 L 17.480469 36.867188 L 12.617188 35.5625 Z M 12.308594 32.105469 "/>
<path style=" stroke:none;fill-rule:nonzero;fill:rgb(0%,0%,0%);fill-opacity:1;" d="M 3.304688 0 L 5.523438 0 L 5.523438 2.175781 L 7.554688 2.175781 L 7.554688 0 L 9.773438 0 L 9.773438 6.589844 L 7.554688 6.589844 L 7.554688 4.382812 L 5.523438 4.382812 L 5.523438 6.589844 L 3.304688 6.589844 Z M 3.304688 0 "/>
<path style=" stroke:none;fill-rule:nonzero;fill:rgb(0%,0%,0%);fill-opacity:1;" d="M 12.691406 2.1875 L 10.738281 2.1875 L 10.738281 0 L 16.863281 0 L 16.863281 2.1875 L 14.910156 2.1875 L 14.910156 6.589844 L 12.691406 6.589844 Z M 12.691406 2.1875 "/>
<path style=" stroke:none;fill-rule:nonzero;fill:rgb(0%,0%,0%);fill-opacity:1;" d="M 17.835938 0 L 20.152344 0 L 21.574219 2.316406 L 22.996094 0 L 25.3125 0 L 25.3125 6.589844 L 23.101562 6.589844 L 23.101562 3.324219 L 21.574219 5.667969 L 21.535156 5.667969 L 20.007812 3.324219 L 20.007812 6.589844 L 17.835938 6.589844 Z M 17.835938 0 "/>
<path style=" stroke:none;fill-rule:nonzero;fill:rgb(0%,0%,0%);fill-opacity:1;" d="M 26.414062 0 L 28.636719 0 L 28.636719 4.414062 L 31.753906 4.414062 L 31.753906 6.589844 L 26.414062 6.589844 Z M 26.414062 0 "/>
<path style=" stroke:none;fill-rule:nonzero;fill:rgb(100%,100%,100%);fill-opacity:1;" d="M 17.484375 29.9375 L 22.863281 29.9375 L 22.355469 35.5625 L 17.484375 36.867188 L 17.484375 41.375 L 26.4375 38.914062 L 26.5 38.179688 L 27.527344 26.769531 L 27.632812 25.605469 L 17.484375 25.605469 Z M 17.484375 29.9375 "/>
<path style=" stroke:none;fill-rule:nonzero;fill:rgb(100%,100%,100%);fill-opacity:1;" d="M 17.484375 21.15625 L 17.484375 21.164062 L 28.03125 21.164062 L 28.121094 20.191406 L 28.320312 17.992188 L 28.421875 16.832031 L 17.484375 16.832031 Z M 17.484375 21.15625 "/>
</g>
</svg>
