<?xml version="1.0" encoding="UTF-8"?>
<svg xmlns="http://www.w3.org/2000/svg" xmlns:xlink="http://www.w3.org/1999/xlink" width="100px" height="19px" viewBox="0 0 102 19" version="1.1">
<g id="surface1">
<path style=" stroke:none;fill-rule:nonzero;fill:rgb(0%,0%,0%);fill-opacity:1;" d="M 96.257812 3.804688 C 99.417969 3.804688 101.554688 5.589844 101.683594 8.34375 L 98.984375 8.34375 C 98.859375 7.0625 97.835938 6.199219 96.253906 6.199219 C 94.777344 6.199219 93.859375 6.871094 93.859375 7.902344 C 93.859375 8.832031 94.523438 9.296875 95.46875 9.621094 L 95.675781 9.691406 L 95.890625 9.753906 L 96.113281 9.816406 L 96.457031 9.902344 L 96.8125 9.988281 L 97.421875 10.128906 L 97.785156 10.214844 L 98.113281 10.300781 L 98.332031 10.359375 L 98.550781 10.421875 C 98.585938 10.433594 98.625 10.445312 98.660156 10.453125 L 98.875 10.523438 L 99.085938 10.597656 C 99.121094 10.609375 99.15625 10.621094 99.191406 10.632812 L 99.398438 10.714844 C 100.84375 11.296875 102 12.296875 102 14.460938 C 102 17.195312 99.714844 18.855469 96.425781 18.855469 C 93.03125 18.855469 90.808594 16.839844 90.660156 13.746094 L 90.65625 13.746094 L 93.371094 13.746094 C 93.519531 15.390625 94.632812 16.4375 96.425781 16.4375 C 98.027344 16.4375 99.136719 15.804688 99.136719 14.503906 C 99.136719 13.507812 98.335938 13.042969 97.242188 12.699219 L 97.019531 12.628906 L 96.789062 12.566406 L 96.308594 12.4375 L 95.4375 12.214844 L 95.183594 12.148438 L 94.929688 12.078125 L 94.679688 12.003906 C 94.59375 11.976562 94.511719 11.953125 94.425781 11.925781 L 94.175781 11.839844 C 92.527344 11.257812 91.105469 10.273438 91.105469 7.898438 C 91.105469 5.484375 93.21875 3.804688 96.257812 3.804688 Z M 51.921875 8.089844 L 51.921875 14.101562 C 51.921875 15.554688 52.816406 16.5625 54.164062 16.5625 C 55.636719 16.5625 56.660156 15.425781 56.660156 13.871094 L 56.660156 8.089844 L 59.289062 8.089844 L 59.289062 18.6875 L 56.660156 18.6875 L 56.660156 17.042969 C 56.0625 18.199219 54.847656 18.851562 53.308594 18.851562 C 50.875 18.851562 49.292969 17.128906 49.292969 14.644531 L 49.292969 8.089844 Z M 37.398438 3.96875 L 43.871094 14.355469 L 43.871094 3.96875 L 46.6875 3.96875 L 46.6875 18.6875 L 43.65625 18.6875 L 37.164062 8.320312 L 37.164062 18.6875 L 34.347656 18.6875 L 34.347656 3.96875 Z M 88.96875 3.96875 L 88.96875 14.480469 C 88.96875 17.320312 87.582031 18.6875 85.234375 18.6875 L 81.953125 18.6875 L 81.953125 16.1875 L 85.304688 16.1875 C 85.53125 16.1875 85.746094 16.097656 85.90625 15.941406 C 86.0625 15.785156 86.152344 15.574219 86.152344 15.355469 L 86.152344 3.96875 Z M 76.542969 4.894531 L 76.542969 8.089844 L 79.53125 8.089844 L 79.53125 10.253906 L 76.542969 10.253906 L 76.542969 15.515625 C 76.542969 15.691406 76.613281 15.863281 76.738281 15.988281 C 76.867188 16.113281 77.039062 16.183594 77.21875 16.183594 L 79.53125 16.183594 L 79.53125 18.683594 L 77.800781 18.683594 C 75.453125 18.683594 73.914062 17.335938 73.914062 14.984375 L 73.914062 10.257812 L 71.800781 10.257812 L 71.800781 8.089844 L 73.128906 8.089844 C 73.746094 8.089844 74.105469 7.726562 74.105469 7.125 L 74.105469 4.894531 Z M 63.75 7.921875 L 65.90625 10.972656 L 68.042969 7.921875 L 70.925781 7.921875 L 67.316406 12.988281 L 71.203125 18.519531 L 68.425781 18.519531 L 65.90625 14.988281 L 63.386719 18.519531 L 60.589844 18.519531 L 64.476562 12.988281 L 60.890625 7.921875 Z M 63.75 7.921875 "/>
<path style=" stroke:none;fill-rule:nonzero;fill:rgb(50.196078%,93.333333%,75.294118%);fill-opacity:1;" d="M 12.417969 1.019531 C 11.628906 -0.339844 9.65625 -0.339844 8.871094 1.019531 L 0.277344 15.851562 C -0.511719 17.210938 0.472656 18.914062 2.050781 18.914062 L 8.757812 18.914062 C 8.085938 18.324219 7.835938 17.300781 8.34375 16.421875 L 14.851562 5.222656 Z M 12.417969 1.019531 "/>
<path style=" stroke:none;fill-rule:nonzero;fill:rgb(0%,86.27451%,50.980392%);fill-opacity:1;" d="M 17.859375 4.273438 C 18.511719 3.160156 20.144531 3.160156 20.796875 4.273438 L 27.90625 16.410156 C 28.558594 17.523438 27.746094 18.914062 26.441406 18.914062 L 12.21875 18.914062 C 10.914062 18.914062 10.097656 17.523438 10.75 16.410156 Z M 17.859375 4.273438 "/>
</g>
</svg>
