<?xml version="1.0" encoding="UTF-8"?>
<svg xmlns="http://www.w3.org/2000/svg" xmlns:xlink="http://www.w3.org/1999/xlink" width="70px" height="42px" viewBox="0 0 69 42" version="1.1">
<defs>
<linearGradient id="linear0" gradientUnits="userSpaceOnUse" x1="-0.0277778" y1="0.32" x2="1" y2="0.675556" gradientTransform="matrix(69,0,0,41.890625,0,0)">
<stop offset="0" style="stop-color:rgb(13.333333%,59.607843%,74.117647%);stop-opacity:1;"/>
<stop offset="1" style="stop-color:rgb(5.490196%,84.313725%,70.980392%);stop-opacity:1;"/>
</linearGradient>
</defs>
<g id="surface1">
<path style=" stroke:none;fill-rule:nonzero;fill:url(#linear0);" d="M 34.5 0 C 25.300781 0 19.550781 4.65625 17.25 13.964844 C 20.699219 9.308594 24.726562 7.5625 29.324219 8.726562 C 31.949219 9.390625 33.824219 11.316406 35.902344 13.449219 C 39.285156 16.925781 43.199219 20.945312 51.75 20.945312 C 60.949219 20.945312 66.699219 16.289062 69 6.980469 C 65.550781 11.636719 61.523438 13.382812 56.925781 12.21875 C 54.300781 11.554688 52.425781 9.628906 50.347656 7.496094 C 46.964844 4.019531 43.050781 0 34.5 0 Z M 17.25 20.945312 C 8.050781 20.945312 2.300781 25.601562 0 34.910156 C 3.449219 30.253906 7.476562 28.507812 12.074219 29.671875 C 14.699219 30.335938 16.574219 32.261719 18.652344 34.394531 C 22.035156 37.871094 25.949219 41.890625 34.5 41.890625 C 43.699219 41.890625 49.449219 37.238281 51.75 27.925781 C 48.300781 32.582031 44.273438 34.328125 39.675781 33.164062 C 37.050781 32.5 35.175781 30.574219 33.097656 28.441406 C 29.714844 24.964844 25.800781 20.945312 17.25 20.945312 Z M 17.25 20.945312 "/>
</g>
</svg>
