<?xml version="1.0" encoding="UTF-8"?>
<svg xmlns="http://www.w3.org/2000/svg" xmlns:xlink="http://www.w3.org/1999/xlink" width="px" height="50px" viewBox="0 0 50 50" version="1.1">
<g id="surface1">
<path style=" stroke:none;fill-rule:nonzero;fill:rgb(0%,47.843137%,80%);fill-opacity:1;" d="M 0 25 L 0 50 L 50 50 L 50 0 L 0 0 Z M 0 25 "/>
<path style=" stroke:none;fill-rule:nonzero;fill:rgb(100%,100%,100%);fill-opacity:1;" d="M 11.058594 25.164062 L 11.039062 27.214844 L 17.550781 27.214844 L 17.550781 45.707031 L 22.152344 45.707031 L 22.152344 27.214844 L 28.660156 27.214844 L 28.660156 25.207031 C 28.660156 24.09375 28.636719 23.164062 28.605469 23.140625 C 28.582031 23.109375 24.621094 23.09375 19.820312 23.101562 L 11.082031 23.125 Z M 11.058594 25.164062 "/>
<path style=" stroke:none;fill-rule:nonzero;fill:rgb(100%,100%,100%);fill-opacity:1;" d="M 40.34375 23.066406 C 41.613281 23.386719 42.582031 23.949219 43.472656 24.871094 C 43.933594 25.363281 44.613281 26.257812 44.671875 26.472656 C 44.6875 26.535156 42.511719 27.996094 41.195312 28.8125 C 41.148438 28.847656 40.957031 28.640625 40.742188 28.320312 C 40.097656 27.386719 39.425781 26.980469 38.394531 26.910156 C 36.875 26.804688 35.902344 27.601562 35.910156 28.925781 C 35.910156 29.3125 35.964844 29.542969 36.121094 29.863281 C 36.457031 30.550781 37.074219 30.964844 39.019531 31.804688 C 42.597656 33.347656 44.128906 34.363281 45.082031 35.804688 C 46.148438 37.417969 46.382812 39.988281 45.664062 41.902344 C 44.867188 43.980469 42.902344 45.394531 40.128906 45.863281 C 39.273438 46.011719 37.242188 45.988281 36.320312 45.820312 C 34.3125 45.464844 32.410156 44.472656 31.234375 43.171875 C 30.773438 42.664062 29.875 41.335938 29.933594 41.242188 C 29.957031 41.210938 30.164062 41.082031 30.394531 40.949219 C 30.613281 40.820312 31.457031 40.335938 32.25 39.878906 L 33.6875 39.042969 L 33.988281 39.488281 C 34.410156 40.132812 35.328125 41.011719 35.882812 41.304688 C 37.480469 42.148438 39.671875 42.027344 40.75 41.058594 C 41.210938 40.640625 41.402344 40.203125 41.402344 39.558594 C 41.402344 38.980469 41.328125 38.726562 41.027344 38.289062 C 40.640625 37.734375 39.84375 37.265625 37.589844 36.289062 C 35.011719 35.179688 33.902344 34.488281 32.882812 33.394531 C 32.296875 32.757812 31.742188 31.742188 31.511719 30.894531 C 31.320312 30.1875 31.273438 28.417969 31.425781 27.703125 C 31.957031 25.210938 33.835938 23.472656 36.550781 22.957031 C 37.433594 22.789062 39.480469 22.855469 40.34375 23.066406 Z M 40.34375 23.066406 "/>
</g>
</svg>
